PathFileType	4	(X/Y/Z)	 s08c0303.trc
DataRate	CameraRate	NumFrames	NumMarkers	Units	OrigDataRate	OrigDataStartFrame	OrigNumFrames
200	200	4	50	mm	200	1251	2000
Frame#	Time	racr			lacr			c7			jug			rlel			rdr			llel			ldr			s2			lic			ric			lasi			rasi			rpsi			lpsi			rgt			lgt			rth1			rth2			rth3			rth4			rlfc			rmfc			rsh1			rsh2			rsh3			rsh4			rlmal			rmmal			rcal			rtoe			rmt5			lth1			lth2			lth4			lth3			llfc			lmfc			llmal			lmmal			lcal			lmt5			lsh1			lsh2			lsh3			lsh4			ltoe			SBIKE			LBIKE			RBIKE			
		X1	Y1	Z1	X2	Y2	Z2	X3	Y3	Z3	X4	Y4	Z4	X5	Y5	Z5	X6	Y6	Z6	X7	Y7	Z7	X8	Y8	Z8	X9	Y9	Z9	X10	Y10	Z10	X11	Y11	Z11	X12	Y12	Z12	X13	Y13	Z13	X14	Y14	Z14	X15	Y15	Z15	X16	Y16	Z16	X17	Y17	Z17	X18	Y18	Z18	X19	Y19	Z19	X20	Y20	Z20	X21	Y21	Z21	X22	Y22	Z22	X23	Y23	Z23	X24	Y24	Z24	X25	Y25	Z25	X26	Y26	Z26	X27	Y27	Z27	X28	Y28	Z28	X29	Y29	Z29	X30	Y30	Z30	X31	Y31	Z31	X32	Y32	Z32	X33	Y33	Z33	X34	Y34	Z34	X35	Y35	Z35	X36	Y36	Z36	X37	Y37	Z37	X38	Y38	Z38	X39	Y39	Z39	X40	Y40	Z40	X41	Y41	Z41	X42	Y42	Z42	X43	Y43	Z43	X44	Y44	Z44	X45	Y45	Z45	X46	Y46	Z46	X47	Y47	Z47	X48	Y48	Z48	X49	Y49	Z49	X50	Y50	Z50	
1251	6.2550	827.086927	1384.492819	-143.079516	805.517635	1317.525581	-453.614460	798.992685	1404.733416	-297.722730	751.703072	1255.216215	-262.484374	733.743372	1161.638427	20.586790	785.897167	886.522359	-43.563850	620.258331	1096.270217	-534.237384	779.032278	912.258382	-424.850842	235.826432	1263.525109	-154.549485	354.178874	1236.573760	-341.438987	433.937581	1242.538650	-37.173281	385.200064	1194.135693	-301.001786	428.721561	1172.750620	-74.156468	284.026168	1296.064468	-109.951295	263.530075	1302.549611	-203.115574	339.910120	1130.211945	17.964733	285.709302	1145.360580	-358.994465	410.397785	969.771954	-2.307881	456.123426	895.639144	-19.946218	458.940871	809.198607	-27.689106	485.636011	907.226130	-37.508216	471.426917	693.925151	-48.588098	437.527928	698.340133	-154.665705	354.414239	629.480069	-14.511566	301.695479	560.441829	-36.506536	222.330726	525.926540	-40.120256	321.321251	542.907314	-68.975922	117.782604	460.411788	-46.948592	133.047930	434.611581	-91.941467	59.059382	511.588742	-97.115279	184.183656	238.748926	-103.664745	117.233415	305.068707	-35.319698	357.847685	1031.784765	-379.681001	426.215387	978.261534	-388.928780	455.831491	998.860850	-380.794023	458.321568	895.625139	-396.442479	515.069448	774.446081	-385.488992	524.378053	741.274486	-281.477303	323.705635	398.610559	-388.345791	357.119019	410.278152	-303.090772	250.172396	382.888239	-350.811831	444.880446	298.757993	-420.527674	457.455605	658.483020	-410.441913	438.667280	575.587938	-395.486100	381.492967	509.111408	-395.514673	462.785902	567.048327	-364.910861	531.933788	319.139730	-355.251602	-201.708699	921.084591	-222.779532	-10.111210	83.429918	-426.093667	-12.291460	80.236270	-27.712590	
1252	6.2600	825.800861	1385.307755	-140.927807	807.759454	1314.746742	-451.948024	799.301201	1404.035804	-296.028928	751.955809	1254.772836	-259.802531	732.867046	1162.041203	22.272426	785.795723	886.718304	-43.134360	621.792575	1095.119393	-535.793471	778.853187	911.538480	-424.469759	234.736773	1260.984571	-154.908486	355.131571	1232.402271	-342.840748	433.716100	1241.209421	-38.372456	385.583287	1189.703737	-301.872686	428.554130	1171.491089	-75.000515	284.804346	1293.941199	-112.636766	263.253648	1299.060348	-204.623697	340.686690	1128.611364	18.120173	285.381521	1139.980565	-359.063737	412.696657	969.505326	-1.746890	459.649638	896.241194	-19.783541	463.690945	809.795458	-27.575756	488.782615	908.349519	-37.741185	478.661675	695.749465	-50.215946	444.280342	699.649081	-155.875408	359.997638	634.554815	-16.594665	306.601184	566.390375	-37.040689	226.113136	533.590989	-41.008613	325.218859	548.278397	-70.152504	120.580944	471.013089	-46.753740	148.569474	472.707918	-136.164633	62.331670	522.416705	-97.294578	184.884286	248.534632	-103.812001	118.623222	315.445314	-35.508321	356.448703	1025.250523	-379.438718	423.873529	970.421581	-388.384126	453.850822	990.562450	-380.453361	454.483847	887.164739	-395.190074	509.522599	766.010601	-384.032336	518.135123	732.701120	-280.107937	322.417268	387.887510	-388.648146	350.884636	396.680415	-310.138002	249.430353	371.887317	-350.549827	443.670477	287.703077	-420.395465	453.268936	648.823144	-409.194257	435.707965	567.173586	-396.925680	379.355881	498.302460	-394.815318	459.258388	557.739840	-363.296224	530.753451	307.815060	-355.113603	-201.810748	921.125510	-222.932081	-10.151669	83.346849	-426.146076	-12.262685	80.082080	-27.822005	
1253	6.2650	824.454294	1386.128593	-138.490354	810.105036	1312.090909	-450.045540	799.584644	1403.586990	-294.413104	752.010180	1254.671439	-257.075022	731.831364	1162.370284	24.157040	786.456152	886.875914	-42.149533	623.665216	1094.183208	-537.304332	778.405627	910.874284	-424.682612	234.168083	1258.185425	-156.108824	356.130768	1227.947851	-344.282471	433.260885	1239.997492	-39.598177	386.051378	1185.075193	-303.003307	428.210129	1170.273840	-75.870790	284.115884	1291.697945	-114.094464	262.980661	1295.631880	-206.579601	340.460023	1127.691376	17.148968	285.358524	1134.305348	-359.270288	414.435090	969.133168	-1.022854	462.759060	896.712053	-19.520929	469.083927	810.549856	-27.698144	492.023755	910.031432	-37.354810	486.254445	697.976820	-51.796481	451.593706	701.473800	-157.307411	366.460735	639.574037	-17.704233	311.461060	572.443290	-38.129850	229.968703	541.213861	-41.900421	330.133397	553.195191	-71.576514	123.987725	480.712465	-47.726468	152.395617	483.287638	-137.674839	65.899110	533.206377	-97.506781	186.390864	258.406295	-103.930174	120.666990	325.768707	-35.647424	354.961175	1018.208344	-379.148833	421.528538	962.375486	-387.776162	451.779221	982.092716	-380.194166	450.680520	878.546048	-393.819228	503.954212	757.396154	-382.205568	511.487165	724.004858	-278.320630	320.685399	377.369519	-388.506369	350.396916	387.805318	-310.792202	247.888119	361.753255	-350.391820	441.774196	276.842280	-420.246210	449.086201	639.054479	-407.663647	432.493629	557.418398	-395.690947	376.920236	487.946693	-393.914762	455.687433	548.545535	-361.688086	529.034963	296.418134	-354.784823	-201.813141	921.108097	-223.149927	-10.166249	83.319257	-426.197648	-12.270963	80.191405	-27.754419	
1254	6.2700	822.904716	1387.079341	-135.709733	812.599060	1309.775097	-447.888903	799.912934	1403.319405	-292.655069	751.870759	1254.791512	-254.384297	730.592626	1162.504537	25.938753	785.507429	886.650973	-42.804814	625.758329	1093.696429	-538.851242	777.505132	908.647766	-427.913640	233.781756	1255.475287	-158.121919	355.383057	1222.711256	-343.242830	432.551566	1239.047309	-40.787985	386.770471	1179.938343	-304.358180	427.709140	1169.122472	-76.667748	283.363281	1289.682967	-116.023271	262.875225	1292.029344	-208.939741	339.988887	1126.442577	16.410884	285.620835	1128.373516	-359.678367	415.871564	968.619566	-0.169383	465.772123	897.677089	-19.018559	474.001496	811.512024	-28.133841	495.009586	911.561709	-36.673794	493.832068	700.602539	-53.444234	457.222719	704.737462	-159.923094	372.964408	644.774931	-19.011369	316.611755	578.488648	-39.133603	234.786134	548.861782	-42.784455	334.540292	559.096821	-71.998380	127.798315	490.706927	-48.534542	156.033564	492.078067	-137.162245	69.737102	543.828209	-97.775010	188.676074	268.300455	-103.967710	123.356649	336.120059	-35.770079	353.707199	1011.207685	-378.960063	419.248070	954.100337	-387.157825	449.882891	973.361955	-379.777609	446.873737	869.689891	-392.338160	498.449437	748.507188	-380.379997	504.923504	714.863801	-276.595967	318.402913	367.309905	-388.461323	365.210038	389.149533	-318.407797	245.810649	351.882356	-350.362070	439.388298	265.972899	-419.989760	444.806854	629.798567	-406.081167	429.035706	548.052860	-394.356277	374.054001	477.971387	-392.768170	451.941961	539.377048	-360.048288	526.580796	285.077088	-354.515323	-201.731977	921.045877	-223.158431	-10.173711	83.196827	-426.168749	-12.269770	80.165598	-27.753595	
